<svg width="1156" height="411" viewBox="0 0 1156 411" fill="none" xmlns="http://www.w3.org/2000/svg">
<path d="M493.245 143.545L530.674 212.004L568.707 143.545H614.949L559.047 236.273L615.915 329H569.914L530.674 262.232L491.796 329H445.432L501.938 236.273L446.881 143.545H493.245ZM723.886 332.622C705.292 332.622 689.234 328.759 675.711 321.031C662.269 313.223 651.926 302.196 644.681 287.949C637.437 273.621 633.815 256.758 633.815 237.359C633.815 218.283 637.437 201.54 644.681 187.132C652.006 172.643 662.229 161.375 675.349 153.325C688.469 145.196 703.883 141.131 721.592 141.131C733.022 141.131 743.808 142.982 753.95 146.685C764.172 150.307 773.187 155.941 780.995 163.588C788.883 171.235 795.081 180.974 799.589 192.807C804.097 204.559 806.35 218.564 806.35 234.824V248.226H654.34V218.766H764.454C764.374 210.394 762.562 202.949 759.021 196.429C755.479 189.829 750.529 184.637 744.17 180.854C737.892 177.071 730.567 175.179 722.195 175.179C713.261 175.179 705.413 177.352 698.651 181.699C691.89 185.965 686.618 191.599 682.835 198.602C679.132 205.525 677.24 213.131 677.16 221.422V247.139C677.16 257.925 679.132 267.182 683.076 274.909C687.02 282.556 692.534 288.432 699.617 292.537C706.701 296.562 714.991 298.574 724.49 298.574C730.848 298.574 736.604 297.688 741.755 295.918C746.907 294.066 751.374 291.37 755.157 287.828C758.94 284.286 761.798 279.9 763.73 274.668L804.539 279.256C801.963 290.042 797.053 299.459 789.809 307.509C782.645 315.477 773.469 321.675 762.281 326.102C751.092 330.449 738.294 332.622 723.886 332.622ZM843.327 329V143.545H885.706V174.455H887.638C891.018 163.749 896.814 155.499 905.024 149.703C913.315 143.827 922.773 140.889 933.398 140.889C935.812 140.889 938.509 141.01 941.487 141.251C944.546 141.412 947.081 141.694 949.094 142.097V182.303C947.242 181.659 944.304 181.095 940.28 180.612C936.336 180.049 932.512 179.767 928.809 179.767C920.841 179.767 913.677 181.498 907.318 184.959C901.04 188.339 896.089 193.048 892.467 199.085C888.845 205.122 887.034 212.085 887.034 219.973V329H843.327ZM1051.39 332.622C1033.28 332.622 1017.58 328.638 1004.3 320.669C991.02 312.7 980.717 301.552 973.392 287.224C966.148 272.897 962.526 256.154 962.526 236.997C962.526 217.84 966.148 201.057 973.392 186.649C980.717 172.241 991.02 161.053 1004.3 153.084C1017.58 145.115 1033.28 141.131 1051.39 141.131C1069.5 141.131 1085.2 145.115 1098.48 153.084C1111.76 161.053 1122.02 172.241 1129.27 186.649C1136.59 201.057 1140.25 217.84 1140.25 236.997C1140.25 256.154 1136.59 272.897 1129.27 287.224C1122.02 301.552 1111.76 312.7 1098.48 320.669C1085.2 328.638 1069.5 332.622 1051.39 332.622ZM1051.63 297.608C1061.45 297.608 1069.66 294.911 1076.26 289.518C1082.86 284.045 1087.77 276.72 1090.99 267.544C1094.29 258.368 1095.94 248.145 1095.94 236.876C1095.94 225.527 1094.29 215.264 1090.99 206.088C1087.77 196.831 1082.86 189.466 1076.26 183.993C1069.66 178.519 1061.45 175.783 1051.63 175.783C1041.57 175.783 1033.2 178.519 1026.52 183.993C1019.92 189.466 1014.97 196.831 1011.67 206.088C1008.45 215.264 1006.84 225.527 1006.84 236.876C1006.84 248.145 1008.45 258.368 1011.67 267.544C1014.97 276.72 1019.92 284.045 1026.52 289.518C1033.2 294.911 1041.57 297.608 1051.63 297.608Z" fill="white"/>
<path d="M164.049 257.213L235.467 328.631L178.191 385.906C170.38 393.717 157.717 393.717 149.907 385.906L92.631 328.631L164.049 257.213Z" fill="#D4A574"/>
<path d="M164.048 214.787L92.6306 143.369L149.906 86.0937C157.717 78.2832 170.38 78.2832 178.19 86.0937L235.466 143.369L164.048 214.787Z" fill="#D4A574"/>
<path d="M71.418 164.582L142.836 236L71.418 307.418L14.1423 250.142C6.33184 242.331 6.33184 229.668 14.1423 221.858L71.418 164.582Z" fill="white"/>
<path d="M256.68 164.582L313.955 221.858C321.766 229.668 321.766 242.331 313.955 250.142L256.68 307.418L185.262 236L256.68 164.582Z" fill="white"/>
</svg>
