<svg width="1804" height="424" viewBox="0 0 1804 424" fill="none" xmlns="http://www.w3.org/2000/svg">
<path d="M456.392 342.729C437.334 342.729 420.969 338.544 407.298 330.175C393.709 321.807 383.227 310.248 375.852 295.499C368.561 280.667 364.915 263.598 364.915 244.291C364.915 224.902 368.643 207.791 376.101 192.96C383.558 178.045 394.081 166.444 407.67 158.158C421.342 149.79 437.5 145.605 456.143 145.605C471.638 145.605 485.352 148.464 497.283 154.181C509.298 159.816 518.868 167.812 525.994 178.169C533.12 188.444 537.18 200.458 538.175 214.213H495.17C493.43 205.016 489.287 197.351 482.741 191.219C476.278 185.005 467.62 181.898 456.765 181.898C447.567 181.898 439.489 184.384 432.528 189.355C425.568 194.244 420.141 201.287 416.246 210.484C412.435 219.682 410.529 230.702 410.529 243.545C410.529 256.554 412.435 267.741 416.246 277.104C420.058 286.384 425.402 293.551 432.28 298.606C439.24 303.577 447.402 306.063 456.765 306.063C463.394 306.063 469.318 304.82 474.538 302.335C479.841 299.766 484.274 296.079 487.837 291.273C491.4 286.467 493.845 280.625 495.17 273.748H538.175C537.098 287.254 533.12 299.227 526.243 309.668C519.366 320.025 510.002 328.145 498.153 334.028C486.304 339.829 472.384 342.729 456.392 342.729ZM630.056 342.853C617.958 342.853 607.062 340.699 597.368 336.39C587.756 331.998 580.133 325.535 574.498 317.001C568.947 308.466 566.171 297.943 566.171 285.431C566.171 274.659 568.16 265.752 572.137 258.709C576.114 251.666 581.541 246.031 588.419 241.805C595.296 237.58 603.044 234.389 611.661 232.235C620.361 229.998 629.352 228.382 638.632 227.388C649.818 226.228 658.891 225.192 665.851 224.281C672.812 223.286 677.866 221.795 681.015 219.806C684.246 217.735 685.862 214.544 685.862 210.236V209.49C685.862 200.127 683.086 192.877 677.535 187.739C671.983 182.602 663.987 180.033 653.547 180.033C642.526 180.033 633.785 182.436 627.322 187.242C620.941 192.048 616.633 197.724 614.395 204.27L572.385 198.304C575.7 186.704 581.169 177.009 588.792 169.22C596.415 161.348 605.737 155.465 616.757 151.571C627.777 147.594 639.958 145.605 653.298 145.605C662.496 145.605 671.652 146.682 680.766 148.837C689.881 150.991 698.208 154.554 705.748 159.526C713.289 164.414 719.337 171.085 723.895 179.536C728.535 187.988 730.855 198.553 730.855 211.23V339H687.602V312.775H686.111C683.376 318.078 679.523 323.049 674.552 327.69C669.663 332.247 663.49 335.934 656.032 338.751C648.658 341.486 639.999 342.853 630.056 342.853ZM641.739 309.792C650.771 309.792 658.601 308.01 665.23 304.447C671.859 300.802 676.955 295.996 680.518 290.03C684.163 284.064 685.986 277.559 685.986 270.516V248.02C684.578 249.18 682.175 250.257 678.778 251.251C675.463 252.246 671.734 253.116 667.591 253.862C663.448 254.607 659.347 255.27 655.287 255.85C651.227 256.43 647.705 256.927 644.722 257.342C638.01 258.253 632.003 259.745 626.7 261.816C621.397 263.888 617.213 266.788 614.147 270.516C611.081 274.162 609.548 278.885 609.548 284.685C609.548 292.971 612.573 299.227 618.621 303.453C624.67 307.679 632.376 309.792 641.739 309.792ZM846.942 342.356C831.944 342.356 818.521 338.503 806.672 330.797C794.823 323.091 785.46 311.905 778.582 297.239C771.705 282.572 768.266 264.758 768.266 243.794C768.266 222.582 771.746 204.684 778.706 190.101C785.75 175.435 795.237 164.373 807.169 156.915C819.101 149.375 832.4 145.605 847.066 145.605C858.252 145.605 867.449 147.511 874.658 151.322C881.867 155.051 887.584 159.567 891.81 164.87C896.036 170.09 899.309 175.02 901.629 179.661H903.493V84.4545H948.611V339H904.363V308.922H901.629C899.309 313.562 895.953 318.492 891.562 323.712C887.17 328.85 881.37 333.241 874.161 336.887C866.952 340.533 857.879 342.356 846.942 342.356ZM859.495 305.442C869.024 305.442 877.144 302.873 883.856 297.736C890.567 292.516 895.663 285.265 899.143 275.985C902.623 266.705 904.363 255.892 904.363 243.545C904.363 231.199 902.623 220.469 899.143 211.354C895.746 202.24 890.692 195.155 883.98 190.101C877.351 185.046 869.189 182.519 859.495 182.519C849.469 182.519 841.1 185.129 834.388 190.349C827.677 195.57 822.622 202.778 819.225 211.976C815.828 221.173 814.129 231.696 814.129 243.545C814.129 255.477 815.828 266.125 819.225 275.488C822.705 284.768 827.801 292.101 834.513 297.487C841.307 302.79 849.635 305.442 859.495 305.442ZM1081.07 342.729C1061.93 342.729 1045.4 338.751 1031.48 330.797C1017.64 322.759 1007 311.408 999.538 296.741C992.081 281.992 988.352 264.633 988.352 244.664C988.352 225.026 992.081 207.791 999.538 192.96C1007.08 178.045 1017.6 166.444 1031.11 158.158C1044.61 149.79 1060.48 145.605 1078.71 145.605C1090.48 145.605 1101.58 147.511 1112.02 151.322C1122.54 155.051 1131.82 160.851 1139.86 168.723C1147.98 176.595 1154.36 186.621 1159 198.801C1163.64 210.899 1165.96 225.316 1165.96 242.054V255.85H1009.48V225.523H1122.83C1122.75 216.906 1120.89 209.241 1117.24 202.53C1113.59 195.735 1108.5 190.391 1101.95 186.496C1095.49 182.602 1087.95 180.655 1079.33 180.655C1070.13 180.655 1062.06 182.892 1055.1 187.366C1048.14 191.758 1042.71 197.558 1038.81 204.767C1035 211.893 1033.06 219.723 1032.97 228.258V254.732C1032.97 265.835 1035 275.364 1039.06 283.318C1043.12 291.19 1048.8 297.239 1056.09 301.464C1063.38 305.607 1071.92 307.679 1081.69 307.679C1088.24 307.679 1094.16 306.768 1099.47 304.945C1104.77 303.039 1109.37 300.263 1113.26 296.617C1117.16 292.971 1120.1 288.455 1122.09 283.07L1164.1 287.793C1161.45 298.896 1156.39 308.59 1148.93 316.876C1141.56 325.08 1132.11 331.46 1120.6 336.017C1109.08 340.491 1095.9 342.729 1081.07 342.729ZM1249.02 227.139V339H1204.03V148.091H1247.03V180.531H1249.27C1253.66 169.842 1260.66 161.348 1270.27 155.051C1279.97 148.754 1291.94 145.605 1306.19 145.605C1319.37 145.605 1330.84 148.422 1340.62 154.057C1350.48 159.691 1358.1 167.853 1363.49 178.542C1368.96 189.231 1371.65 202.198 1371.57 217.445V339H1326.58V224.405C1326.58 211.644 1323.26 201.66 1316.63 194.451C1310.09 187.242 1301.01 183.638 1289.41 183.638C1281.54 183.638 1274.54 185.378 1268.41 188.858C1262.36 192.255 1257.59 197.185 1254.11 203.648C1250.72 210.112 1249.02 217.942 1249.02 227.139ZM1500.58 342.729C1481.52 342.729 1465.16 338.544 1451.49 330.175C1437.9 321.807 1427.42 310.248 1420.04 295.499C1412.75 280.667 1409.1 263.598 1409.1 244.291C1409.1 224.902 1412.83 207.791 1420.29 192.96C1427.75 178.045 1438.27 166.444 1451.86 158.158C1465.53 149.79 1481.69 145.605 1500.33 145.605C1515.83 145.605 1529.54 148.464 1541.47 154.181C1553.49 159.816 1563.06 167.812 1570.18 178.169C1577.31 188.444 1581.37 200.458 1582.36 214.213H1539.36C1537.62 205.016 1533.48 197.351 1526.93 191.219C1520.47 185.005 1511.81 181.898 1500.95 181.898C1491.76 181.898 1483.68 184.384 1476.72 189.355C1469.76 194.244 1464.33 201.287 1460.44 210.484C1456.62 219.682 1454.72 230.702 1454.72 243.545C1454.72 256.554 1456.62 267.741 1460.44 277.104C1464.25 286.384 1469.59 293.551 1476.47 298.606C1483.43 303.577 1491.59 306.063 1500.95 306.063C1507.58 306.063 1513.51 304.82 1518.73 302.335C1524.03 299.766 1528.46 296.079 1532.03 291.273C1535.59 286.467 1538.03 280.625 1539.36 273.748H1582.36C1581.29 287.254 1577.31 299.227 1570.43 309.668C1563.55 320.025 1554.19 328.145 1542.34 334.028C1530.49 339.829 1516.57 342.729 1500.58 342.729ZM1703.83 342.729C1684.69 342.729 1668.16 338.751 1654.23 330.797C1640.4 322.759 1629.75 311.408 1622.29 296.741C1614.83 281.992 1611.11 264.633 1611.11 244.664C1611.11 225.026 1614.83 207.791 1622.29 192.96C1629.83 178.045 1640.36 166.444 1653.86 158.158C1667.37 149.79 1683.24 145.605 1701.46 145.605C1713.23 145.605 1724.33 147.511 1734.77 151.322C1745.3 155.051 1754.58 160.851 1762.62 168.723C1770.74 176.595 1777.12 186.621 1781.76 198.801C1786.4 210.899 1788.72 225.316 1788.72 242.054V255.85H1632.24V225.523H1745.59C1745.5 216.906 1743.64 209.241 1739.99 202.53C1736.35 195.735 1731.25 190.391 1724.71 186.496C1718.24 182.602 1710.7 180.655 1702.09 180.655C1692.89 180.655 1684.81 182.892 1677.85 187.366C1670.89 191.758 1665.46 197.558 1661.57 204.767C1657.76 211.893 1655.81 219.723 1655.73 228.258V254.732C1655.73 265.835 1657.76 275.364 1661.82 283.318C1665.88 291.19 1671.55 297.239 1678.84 301.464C1686.14 305.607 1694.67 307.679 1704.45 307.679C1710.99 307.679 1716.92 306.768 1722.22 304.945C1727.52 303.039 1732.12 300.263 1736.02 296.617C1739.91 292.971 1742.85 288.455 1744.84 283.07L1786.85 287.793C1784.2 298.896 1779.15 308.59 1771.69 316.876C1764.31 325.08 1754.87 331.46 1743.35 336.017C1731.83 340.491 1718.66 342.729 1703.83 342.729Z" fill="white"/>
<path d="M131 261H232V342C232 353.046 223.046 362 212 362H131V261Z" fill="#606060"/>
<path d="M0 281C0 269.954 8.95431 261 20 261H101V362H20C8.95431 362 0 353.046 0 342V281Z" fill="white"/>
<path d="M131 150C131 138.954 139.954 130 151 130H212C223.046 130 232 138.954 232 150V231H131V150Z" fill="white"/>
</svg>
