<svg width="1169" height="411" viewBox="0 0 1169 411" fill="none" xmlns="http://www.w3.org/2000/svg">
<path d="M507.196 143.545L544.625 212.004L582.658 143.545H628.901L572.999 236.273L629.866 329H583.865L544.625 262.232L505.747 329H459.384L515.889 236.273L460.832 143.545H507.196ZM737.837 332.622C719.243 332.622 703.185 328.759 689.662 321.031C676.22 313.223 665.877 302.196 658.632 287.949C651.388 273.621 647.766 256.758 647.766 237.359C647.766 218.283 651.388 201.54 658.632 187.132C665.957 172.643 676.18 161.375 689.3 153.325C702.42 145.196 717.835 141.131 735.543 141.131C746.973 141.131 757.759 142.982 767.901 146.685C778.123 150.307 787.139 155.941 794.946 163.588C802.835 171.235 809.033 180.974 813.54 192.807C818.048 204.559 820.302 218.564 820.302 234.824V248.226H668.292V218.766H778.405C778.325 210.394 776.514 202.949 772.972 196.429C769.43 189.829 764.48 184.637 758.121 180.854C751.843 177.071 744.518 175.179 736.147 175.179C727.212 175.179 719.364 177.352 712.603 181.699C705.841 185.965 700.569 191.599 696.786 198.602C693.083 205.525 691.192 213.131 691.111 221.422V247.139C691.111 257.925 693.083 267.182 697.027 274.909C700.971 282.556 706.485 288.432 713.569 292.537C720.652 296.562 728.943 298.574 738.441 298.574C744.8 298.574 750.555 297.688 755.706 295.918C760.858 294.066 765.325 291.37 769.108 287.828C772.891 284.286 775.749 279.9 777.681 274.668L818.49 279.256C815.915 290.042 811.005 299.459 803.76 307.509C796.596 315.477 787.42 321.675 776.232 326.102C765.043 330.449 752.245 332.622 737.837 332.622ZM857.278 329V143.545H899.657V174.455H901.589C904.969 163.749 910.765 155.499 918.975 149.703C927.266 143.827 936.724 140.889 947.349 140.889C949.763 140.889 952.46 141.01 955.438 141.251C958.497 141.412 961.032 141.694 963.045 142.097V182.303C961.193 181.659 958.255 181.095 954.231 180.612C950.287 180.049 946.463 179.767 942.761 179.767C934.792 179.767 927.628 181.498 921.269 184.959C914.991 188.339 910.04 193.048 906.418 199.085C902.796 205.122 900.985 212.085 900.985 219.973V329H857.278ZM1065.34 332.622C1047.23 332.622 1031.53 328.638 1018.25 320.669C1004.97 312.7 994.668 301.552 987.343 287.224C980.099 272.897 976.477 256.154 976.477 236.997C976.477 217.84 980.099 201.057 987.343 186.649C994.668 172.241 1004.97 161.053 1018.25 153.084C1031.53 145.115 1047.23 141.131 1065.34 141.131C1083.45 141.131 1099.15 145.115 1112.43 153.084C1125.71 161.053 1135.97 172.241 1143.22 186.649C1150.54 201.057 1154.2 217.84 1154.2 236.997C1154.2 256.154 1150.54 272.897 1143.22 287.224C1135.97 301.552 1125.71 312.7 1112.43 320.669C1099.15 328.638 1083.45 332.622 1065.34 332.622ZM1065.58 297.608C1075.4 297.608 1083.61 294.911 1090.21 289.518C1096.81 284.045 1101.72 276.72 1104.94 267.544C1108.24 258.368 1109.89 248.145 1109.89 236.876C1109.89 225.527 1108.24 215.264 1104.94 206.088C1101.72 196.831 1096.81 189.466 1090.21 183.993C1083.61 178.519 1075.4 175.783 1065.58 175.783C1055.52 175.783 1047.15 178.519 1040.47 183.993C1033.87 189.466 1028.92 196.831 1025.62 206.088C1022.4 215.264 1020.79 225.527 1020.79 236.876C1020.79 248.145 1022.4 258.368 1025.62 267.544C1028.92 276.72 1033.87 284.045 1040.47 289.518C1047.15 294.911 1055.52 297.608 1065.58 297.608Z" fill="white"/>
<path d="M152.457 251.457H270V349C270 360.046 261.046 369 250 369H152.457V251.457Z" fill="#D4A574"/>
<path d="M117.543 216.543L-0.000137329 216.543L-0.000145857 119C-0.000146822 107.954 8.95416 98.9999 19.9999 98.9999L117.543 98.9999L117.543 216.543Z" fill="#D4A574"/>
<path d="M0 251.457H117.543V369H20C8.95428 369 0 360.046 0 349L0 251.457Z" fill="#4E3F30"/>
<path d="M152.457 99H250C261.046 99 270 107.954 270 119V216.543H152.457V99Z" fill="#4E3F30"/>
</svg>
